<?xml version="1.0" encoding="UTF-8" standalone="no"?>
<!-- Created with Inkscape (http://www.inkscape.org/) -->

<svg
   xmlns:dc="http://purl.org/dc/elements/1.1/"
   xmlns:cc="http://creativecommons.org/ns#"
   xmlns:rdf="http://www.w3.org/1999/02/22-rdf-syntax-ns#"
   xmlns:svg="http://www.w3.org/2000/svg"
   xmlns="http://www.w3.org/2000/svg"
   xmlns:xlink="http://www.w3.org/1999/xlink"
   xmlns:sodipodi="http://sodipodi.sourceforge.net/DTD/sodipodi-0.dtd"
   xmlns:inkscape="http://www.inkscape.org/namespaces/inkscape"
   version="1.1"
   id="svg3680"
   width="512"
   height="512"
   viewBox="0 0 512 512"
   sodipodi:docname="reboot.svg"
   inkscape:version="0.92.0 r15299">
  <metadata
     id="metadata3686">
    <rdf:RDF>
      <cc:Work
         rdf:about="">
        <dc:format>image/svg+xml</dc:format>
        <dc:type
           rdf:resource="http://purl.org/dc/dcmitype/StillImage" />
        <dc:title />
      </cc:Work>
    </rdf:RDF>
  </metadata>
  <defs
     id="defs3684">
    <inkscape:path-effect
       effect="simplify"
       id="path-effect7137"
       is_visible="true"
       steps="1"
       threshold="0.002"
       smooth_angles="0"
       helper_size="5"
       simplify_individual_paths="true"
       simplify_just_coalesce="true" />
    <inkscape:path-effect
       effect="simplify"
       id="path-effect6764"
       is_visible="true"
       steps="1"
       threshold="0.002"
       smooth_angles="0"
       helper_size="5"
       simplify_individual_paths="false"
       simplify_just_coalesce="false" />
    <marker
       inkscape:stockid="Arrow1Lend"
       orient="auto"
       refY="0.0"
       refX="0.0"
       id="Arrow1Lend"
       style="overflow:visible;"
       inkscape:isstock="true">
      <path
         id="path4584"
         d="M 0.0,0.0 L 5.0,-5.0 L -12.5,0.0 L 5.0,5.0 L 0.0,0.0 z "
         style="fill-rule:evenodd;stroke:none;stroke-width:1pt;stroke-opacity:1;fill:#f9f9f9;fill-opacity:0.49019608"
         transform="scale(0.8) rotate(180) translate(12.5,0)" />
    </marker>
    <linearGradient
       inkscape:collect="always"
       id="linearGradient4563">
      <stop
         style="stop-color:#1f6375;stop-opacity:1"
         offset="0"
         id="stop4559" />
      <stop
         style="stop-color:#1b444f;stop-opacity:1"
         offset="1"
         id="stop4561" />
    </linearGradient>
    <linearGradient
       inkscape:collect="always"
       xlink:href="#linearGradient4563"
       id="linearGradient4565"
       x1="0"
       y1="546.1333"
       x2="512"
       y2="34.133301"
       gradientUnits="userSpaceOnUse" />
  </defs>
  <sodipodi:namedview
     pagecolor="#ffffff"
     bordercolor="#666666"
     borderopacity="1"
     objecttolerance="10"
     gridtolerance="10"
     guidetolerance="10"
     inkscape:pageopacity="0"
     inkscape:pageshadow="2"
     inkscape:window-width="1920"
     inkscape:window-height="1017"
     id="namedview3682"
     showgrid="false"
     inkscape:zoom="1.4142136"
     inkscape:cx="4.1912611"
     inkscape:cy="278.24574"
     inkscape:window-x="-8"
     inkscape:window-y="-8"
     inkscape:window-maximized="1"
     inkscape:current-layer="layer2"
     inkscape:snap-center="true" />
  <g
     inkscape:groupmode="layer"
     id="layer5"
     inkscape:label="bg 2"
     style="display:none">
    <rect
       style="opacity:1;fill:#000000;fill-opacity:1;stroke:none;stroke-width:0;stroke-miterlimit:4;stroke-dasharray:none"
       id="rect7874"
       width="510.58578"
       height="511.89062"
       x="0.70710611"
       y="0.054692172"
       inkscape:export-xdpi="96.760002"
       inkscape:export-ydpi="96.760002" />
  </g>
  <g
     inkscape:groupmode="layer"
     id="layer4"
     inkscape:label="bg 1"
     style="display:none">
    <rect
       transform="translate(0,-34.133301)"
       id="rect32"
       width="512"
       height="512"
       x="0"
       y="34.133301"
       style="display:inline;fill:url(#linearGradient4565);fill-opacity:1"
       inkscape:export-xdpi="96.760002"
       inkscape:export-ydpi="96.760002" />
  </g>
  <g
     inkscape:groupmode="layer"
     id="layer1"
     inkscape:label="bg"
     style="display:inline"
     transform="translate(0,-34.133301)">
    <circle
       style="display:inline;opacity:1;fill:#c8ffff;fill-opacity:0.33333334;stroke:none;stroke-width:0;stroke-miterlimit:4;stroke-dasharray:none"
       id="path7090"
       cx="256"
       cy="290.1333"
       r="254"
       inkscape:export-xdpi="96.760002"
       inkscape:export-ydpi="96.760002" />
  </g>
  <g
     inkscape:groupmode="layer"
     id="layer2"
     inkscape:label="fg"
     transform="translate(0,-34.133301)">
    <path
       style="fill:none;stroke-width:1.0666666"
       d="M 244.49798,543.06512 C 122.23719,529.66696 26.761684,432.47846 15.080614,309.53163 c -2.41087,-25.3751 -0.0195,-57.87592 6.12181,-83.19999 11.44062,-47.17634 33.8779,-87.00217 68.551685,-121.67824 22.771171,-22.772661 41.265311,-36.085781 68.877211,-49.581691 24.23229,-11.84405 46.95499,-19.02557 74.66667,-23.59845 16.7342,-2.76141 59.10406,-2.75149 75.73332,0.0177 45.38168,7.55728 83.5835,23.94336 119.46666,51.24336 11.87951,9.03796 32.22454,29.030871 42.46558,41.730621 22.06511,27.36259 38.66243,59.74136 48.11594,93.86667 11.2998,40.79006 12.02035,85.92303 2.04356,127.99999 -17.70497,74.67035 -68.62543,138.30633 -137.42507,171.74191 -23.97075,11.64942 -48.64625,19.45406 -74.13333,23.4477 -13.30189,2.08431 -51.79965,2.99777 -65.06667,1.54388 z m 61.44561,-4.70634 c 56.24964,-7.99162 104.64157,-32.2046 144.97592,-72.53896 21.88458,-21.88457 36.16275,-41.77766 49.01352,-68.28819 34.33817,-70.83802 34.35029,-152.48546 0.0331,-222.93332 C 468.6952,110.40395 411.07361,61.580599 343.27158,41.829459 265.07955,19.051649 184.02441,33.790449 117.82863,82.823279 103.75546,93.247619 79.099304,117.72759 68.809474,131.49218 21.464334,194.82519 5.3852238,273.08611 24.298674,348.13699 51.259184,455.11958 142.78811,531.49977 254.63132,540.34781 c 9.63545,0.76227 40.31847,-0.4271 51.31227,-1.98903 z M 269.50477,435.98755 c -0.85769,-4.57182 -0.21902,-22.53569 0.83873,-23.59166 0.42837,-0.42764 5.30938,-1.15978 10.84671,-1.62698 43.29531,-3.65301 80.36894,-27.85894 101.3568,-66.17739 19.7707,-36.09623 19.34682,-85.1947 -1.04443,-120.97667 -23.31176,-40.90685 -63.65354,-64.48321 -110.33793,-64.48321 -46.68439,0 -87.02617,23.57636 -110.33793,64.48321 -8.51207,14.93672 -15.52873,39.01329 -15.52873,53.28434 v 5.96578 h 9.53056 c 5.24181,0 10.77725,0.47398 12.30097,1.05331 2.65797,1.01056 2.70569,1.17288 1.17574,4 -3.44823,6.37181 -36.43629,48.81335 -37.9406,48.81335 -1.50431,0 -34.492368,-42.44154 -37.940606,-48.81335 -1.529948,-2.82712 -1.482232,-2.98944 1.175745,-4 1.523724,-0.57933 7.299161,-1.05331 12.834301,-1.05331 h 10.06389 l 0.004,-6.66667 c 0.0114,-17.80132 5.8045,-39.51953 16.0042,-60 8.97988,-18.03114 17.76349,-29.99674 31.85614,-43.39653 29.56775,-28.11403 65.93168,-42.62802 106.80203,-42.62802 26.07899,0 45.50377,4.56437 68.79999,16.16638 18.03115,8.97988 29.99675,17.76349 43.39654,31.85614 28.1705,29.62714 42.57335,65.75898 42.57335,106.80203 0,25.76033 -4.43103,45.13641 -15.49731,67.76689 -7.63527,15.61404 -16.29003,27.97731 -28.24238,40.34396 -27.01527,27.95173 -68.44048,46.53308 -103.78186,46.55152 l -8.21833,0.004 -0.68988,-3.67741 z m 28.32655,-0.257 c 62.07697,-9.97881 113.00495,-61.01374 124.33778,-124.59892 2.54979,-14.30611 2.54979,-37.96055 0,-52.26666 -11.24642,-63.10034 -59.38884,-112.01733 -122.45741,-124.42765 -15.425,-3.03527 -40.24974,-3.26997 -54.68037,-0.51697 -49.23049,9.39192 -88.92717,38.97811 -110.82984,82.60221 -8.93975,17.80554 -14.43258,37.98953 -16.09487,59.14241 l -0.73346,9.33333 h -11.04129 c -6.493751,0 -11.323691,0.45692 -11.72694,1.1094 -0.921183,1.49049 33.72516,47.87171 35.75974,47.87171 2.03458,0 36.68091,-46.38122 35.75974,-47.87171 -0.40387,-0.65347 -5.26266,-1.1094 -11.8227,-1.1094 h -11.13704 v -6.26028 c 0,-21.50515 10.03187,-49.84616 24.57762,-69.43413 47.13516,-63.47438 138.42913,-70.48495 194.01543,-14.89865 29.32911,29.32911 42.47767,70.47276 35.75974,111.89709 -8.88471,54.78527 -54.13111,98.68709 -108.7528,105.52111 -0.99962,0.12507 -2.02504,0.24992 -3.0446,0.3711 -4.36579,0.5189 -8.62414,0.9705 -10.28873,1.08355 l -3.73334,0.25354 -0.3052,11.04426 c -0.2014,7.28777 0.11938,11.55586 0.94309,12.54838 1.42631,1.7186 8.55998,1.32863 25.49545,-1.39372 z"
       id="path3694"
       inkscape:connector-curvature="0"
       sodipodi:nodetypes="cscssscssssssccsssssssssscccssssscscssccsccsssssscsccccssssssscscscscssssssccccs"
       inkscape:export-xdpi="96.760002"
       inkscape:export-ydpi="96.760002" />
    <path
       style="opacity:0.69256759;fill:none;fill-opacity:1;stroke:none;stroke-width:0;stroke-miterlimit:4;stroke-dasharray:none"
       d="m 252.7509,411.05849 c -1.14187,-1.19891 -0.89472,-23.31519 0.28518,-25.51987 0.57557,-1.07545 2.08544,-1.93426 3.40063,-1.93426 4.77594,0 26.30164,-4.11407 34.35996,-6.567 44.73207,-13.61632 78.70445,-52.16505 86.78188,-98.4721 2.42572,-13.90641 1.5012,-38.77323 -1.95533,-52.59256 -5.40197,-21.59727 -15.31076,-39.00439 -31.92795,-56.08896 -12.44665,-12.79672 -18.58377,-17.4961 -31.5404,-24.15147 -30.06823,-15.44499 -64.5569,-18.49977 -96.32491,-8.53181 -31.92429,10.01698 -59.57399,33.48578 -74.30636,63.07049 -7.54343,15.1483 -13.5227,36.97749 -13.5227,49.36887 v 4.96454 l 8.25,0.11831 c 10.28965,0.14757 14.13824,0.9436 14.53552,3.00648 0.17046,0.88515 -1.73293,4.59328 -4.22977,8.24029 -4.25681,6.21771 -25.31558,33.50739 -30.97113,40.13492 l -2.56002,3 -3.01557,-3.5 c -4.86098,-5.64186 -25.224903,-31.91867 -30.322521,-39.12699 -4.712979,-6.66442 -5.592291,-9.19517 -3.618677,-10.41493 0.587308,-0.36298 6.099808,-0.95204 12.25,-1.30902 l 11.182168,-0.64906 0.6584,-12.5 c 1.85139,-35.14923 21.82354,-74.84582 50.3416,-100.05882 8.93455,-7.8991 25.63666,-19.46698 34.74742,-24.06608 18.23424,-9.20462 44.31881,-14.93393 68.25258,-14.99126 26.98673,-0.0646 44.1005,3.84896 68,15.55033 21.5858,10.56857 35.88509,21.67975 50.84207,39.50652 17.6303,21.01305 26.84929,39.71459 33.30357,67.55931 2.38055,10.27006 2.68633,50.79995 0.46776,62 -4.73234,23.89035 -18.76233,52.31004 -35.2975,71.5 -20.90343,24.25956 -55.82694,44.52918 -86.98106,50.48384 -9.6277,1.84019 -29.98009,3.13021 -31.08484,1.97029 z"
       id="path5058"
       inkscape:connector-curvature="0"
       transform="translate(0,34.133301)"
       inkscape:export-xdpi="96.760002"
       inkscape:export-ydpi="96.760002" />
    <path
       style="opacity:0.69256759;fill:none;fill-opacity:1;stroke:none;stroke-width:0;stroke-miterlimit:4;stroke-dasharray:none"
       d="m 252.7509,411.05849 c -1.14187,-1.19891 -0.89472,-23.31519 0.28518,-25.51987 0.57557,-1.07545 2.08544,-1.93426 3.40063,-1.93426 4.77594,0 26.30164,-4.11407 34.35996,-6.567 44.73207,-13.61632 78.70445,-52.16505 86.78188,-98.4721 2.42572,-13.90641 1.5012,-38.77323 -1.95533,-52.59256 -5.40197,-21.59727 -15.31076,-39.00439 -31.92795,-56.08896 -12.44665,-12.79672 -18.58377,-17.4961 -31.5404,-24.15147 -30.06823,-15.44499 -64.5569,-18.49977 -96.32491,-8.53181 -31.92429,10.01698 -59.57399,33.48578 -74.30636,63.07049 -7.54343,15.1483 -13.5227,36.97749 -13.5227,49.36887 v 4.96454 l 8.25,0.11831 c 10.28965,0.14757 14.13824,0.9436 14.53552,3.00648 0.17046,0.88515 -1.73293,4.59328 -4.22977,8.24029 -4.25681,6.21771 -25.31558,33.50739 -30.97113,40.13492 l -2.56002,3 -3.01557,-3.5 c -4.86098,-5.64186 -25.224903,-31.91867 -30.322521,-39.12699 -4.712979,-6.66442 -5.592291,-9.19517 -3.618677,-10.41493 0.587308,-0.36298 6.099808,-0.95204 12.25,-1.30902 l 11.182168,-0.64906 0.6584,-12.5 c 1.85139,-35.14923 21.82354,-74.84582 50.3416,-100.05882 8.93455,-7.8991 25.63666,-19.46698 34.74742,-24.06608 18.23424,-9.20462 44.31881,-14.93393 68.25258,-14.99126 26.98673,-0.0646 44.1005,3.84896 68,15.55033 21.5858,10.56857 35.88509,21.67975 50.84207,39.50652 17.6303,21.01305 26.84929,39.71459 33.30357,67.55931 2.38055,10.27006 2.68633,50.79995 0.46776,62 -4.73234,23.89035 -18.76233,52.31004 -35.2975,71.5 -20.90343,24.25956 -55.82694,44.52918 -86.98106,50.48384 -9.6277,1.84019 -29.98009,3.13021 -31.08484,1.97029 z"
       id="path5060"
       inkscape:connector-curvature="0"
       transform="translate(0,34.133301)"
       inkscape:export-xdpi="96.760002"
       inkscape:export-ydpi="96.760002" />
    <path
       style="opacity:0.69256759;fill:none;fill-opacity:1;stroke:none;stroke-width:0;stroke-miterlimit:4;stroke-dasharray:none"
       d="m 252.7509,411.05849 c -1.14187,-1.19891 -0.89472,-23.31519 0.28518,-25.51987 0.57557,-1.07545 2.08544,-1.93426 3.40063,-1.93426 4.77594,0 26.30164,-4.11407 34.35996,-6.567 44.73207,-13.61632 78.70445,-52.16505 86.78188,-98.4721 2.42572,-13.90641 1.5012,-38.77323 -1.95533,-52.59256 -5.40197,-21.59727 -15.31076,-39.00439 -31.92795,-56.08896 -12.44665,-12.79672 -18.58377,-17.4961 -31.5404,-24.15147 -30.06823,-15.44499 -64.5569,-18.49977 -96.32491,-8.53181 -31.92429,10.01698 -59.57399,33.48578 -74.30636,63.07049 -7.54343,15.1483 -13.5227,36.97749 -13.5227,49.36887 v 4.96454 l 8.25,0.11831 c 10.28965,0.14757 14.13824,0.9436 14.53552,3.00648 0.17046,0.88515 -1.73293,4.59328 -4.22977,8.24029 -4.25681,6.21771 -25.31558,33.50739 -30.97113,40.13492 l -2.56002,3 -3.01557,-3.5 c -4.86098,-5.64186 -25.224903,-31.91867 -30.322521,-39.12699 -4.712979,-6.66442 -5.592291,-9.19517 -3.618677,-10.41493 0.587308,-0.36298 6.099808,-0.95204 12.25,-1.30902 l 11.182168,-0.64906 0.6584,-12.5 c 1.85139,-35.14923 21.82354,-74.84582 50.3416,-100.05882 8.93455,-7.8991 25.63666,-19.46698 34.74742,-24.06608 18.23424,-9.20462 44.31881,-14.93393 68.25258,-14.99126 26.98673,-0.0646 44.1005,3.84896 68,15.55033 21.5858,10.56857 35.88509,21.67975 50.84207,39.50652 17.6303,21.01305 26.84929,39.71459 33.30357,67.55931 2.38055,10.27006 2.68633,50.79995 0.46776,62 -4.73234,23.89035 -18.76233,52.31004 -35.2975,71.5 -20.90343,24.25956 -55.82694,44.52918 -86.98106,50.48384 -9.6277,1.84019 -29.98009,3.13021 -31.08484,1.97029 z"
       id="path5062"
       inkscape:connector-curvature="0"
       transform="translate(0,34.133301)"
       inkscape:export-xdpi="96.760002"
       inkscape:export-ydpi="96.760002" />
    <path
       style="opacity:0.69256759;fill:none;fill-opacity:1;stroke:none;stroke-width:0;stroke-miterlimit:4;stroke-dasharray:none"
       d="m 252.7509,411.05849 c -1.14187,-1.19891 -0.89472,-23.31519 0.28518,-25.51987 0.57557,-1.07545 2.08544,-1.93426 3.40063,-1.93426 4.77594,0 26.30164,-4.11407 34.35996,-6.567 44.73207,-13.61632 78.70445,-52.16505 86.78188,-98.4721 2.42572,-13.90641 1.5012,-38.77323 -1.95533,-52.59256 -5.40197,-21.59727 -15.31076,-39.00439 -31.92795,-56.08896 -12.44665,-12.79672 -18.58377,-17.4961 -31.5404,-24.15147 -30.06823,-15.44499 -64.5569,-18.49977 -96.32491,-8.53181 -31.92429,10.01698 -59.57399,33.48578 -74.30636,63.07049 -7.54343,15.1483 -13.5227,36.97749 -13.5227,49.36887 v 4.96454 l 8.25,0.11831 c 10.28965,0.14757 14.13824,0.9436 14.53552,3.00648 0.17046,0.88515 -1.73293,4.59328 -4.22977,8.24029 -4.25681,6.21771 -25.31558,33.50739 -30.97113,40.13492 l -2.56002,3 -3.01557,-3.5 c -4.86098,-5.64186 -25.224903,-31.91867 -30.322521,-39.12699 -4.712979,-6.66442 -5.592291,-9.19517 -3.618677,-10.41493 0.587308,-0.36298 6.099808,-0.95204 12.25,-1.30902 l 11.182168,-0.64906 0.6584,-12.5 c 1.85139,-35.14923 21.82354,-74.84582 50.3416,-100.05882 8.93455,-7.8991 25.63666,-19.46698 34.74742,-24.06608 18.23424,-9.20462 44.31881,-14.93393 68.25258,-14.99126 26.98673,-0.0646 44.1005,3.84896 68,15.55033 21.5858,10.56857 35.88509,21.67975 50.84207,39.50652 17.6303,21.01305 26.84929,39.71459 33.30357,67.55931 2.38055,10.27006 2.68633,50.79995 0.46776,62 -4.73234,23.89035 -18.76233,52.31004 -35.2975,71.5 -20.90343,24.25956 -55.82694,44.52918 -86.98106,50.48384 -9.6277,1.84019 -29.98009,3.13021 -31.08484,1.97029 z"
       id="path5064"
       inkscape:connector-curvature="0"
       transform="translate(0,34.133301)"
       inkscape:export-xdpi="96.760002"
       inkscape:export-ydpi="96.760002" />
    <path
       style="opacity:1;fill:#eaeaea;fill-opacity:1;stroke:none;stroke-width:0;stroke-miterlimit:4;stroke-dasharray:none"
       d="m 252.50568,411.62867 c -1.16492,-1.88489 -0.68619,-25.92734 0.53973,-27.10569 0.22545,-0.2167 5.0224,-1.1084 10.6599,-1.98156 18.36216,-2.844 29.22569,-6.10819 43.29227,-13.00811 38.01143,-18.64534 63.83772,-53.82165 70.28903,-95.73614 1.57507,-10.23331 1.59234,-30.24709 0.0339,-39.25 -4.43581,-25.62469 -15.75189,-47.126 -34.86568,-66.24715 -6.73669,-6.73929 -14.71787,-13.46772 -20.09491,-16.94076 -6.14736,-3.97058 -21.13238,-11.04357 -28.51738,-13.46031 -32.51539,-10.64068 -66.44419,-8.24413 -96.46942,6.81409 -11.76365,5.89969 -19.47266,11.24221 -28.98263,20.08562 -22.80336,21.20505 -36.52681,48.97016 -40.01864,80.96518 -0.46631,4.27276 -0.68134,7.93515 -0.47784,8.13865 0.2035,0.2035 4.10661,0.52832 8.67358,0.72182 10.20454,0.43237 12.84895,0.7787 14.18082,1.85718 l 1.0369,0.83963 -1.7838,3.42226 c -0.98109,1.88224 -3.2996,5.47685 -5.15224,7.98802 -9.06749,12.29057 -29.09859,37.79008 -30.99704,39.45911 -0.99374,0.87365 -1.07097,0.82956 -3.50336,-2 -3.76937,-4.38486 -17.191588,-21.38922 -23.990665,-30.39334 -11.319971,-14.99119 -13.164356,-18.40588 -10.664321,-19.74385 1.114637,-0.59654 11.202394,-1.4741 17.261479,-1.50163 6.560324,-0.0298 6.046424,0.63493 6.415015,-8.29782 0.694832,-16.83913 4.308472,-31.96099 11.825422,-49.48539 11.75699,-27.40928 27.93858,-47.80419 52.00956,-65.55169 27.59693,-20.34717 60.70293,-30.17832 97.25,-28.87933 25.76483,0.91575 45.2269,6.48581 69.87983,19.99964 12.53336,6.87033 21.82217,14.1232 33.63633,26.26384 22.74908,23.37773 34.15751,44.09024 41.19671,74.79444 1.84583,8.05129 2.55807,14.59904 2.87187,26.40179 0.45677,17.17988 -0.8517,29.37588 -4.82792,45 -12.29777,48.32274 -49.02028,88.13901 -99.50682,107.88998 -7.22997,2.82845 -16.00171,5.61336 -20.80687,6.60589 -8.91365,1.84117 -29.71061,3.43938 -30.39276,2.33563 z"
       id="path7802"
       inkscape:connector-curvature="0"
       transform="translate(0,34.133301)"
       inkscape:export-xdpi="96.760002"
       inkscape:export-ydpi="96.760002" />
  </g>
</svg>
