<?xml version="1.0" encoding="UTF-8" standalone="no"?>
<!-- Created with Inkscape (http://www.inkscape.org/) -->

<svg
   xmlns:dc="http://purl.org/dc/elements/1.1/"
   xmlns:cc="http://creativecommons.org/ns#"
   xmlns:rdf="http://www.w3.org/1999/02/22-rdf-syntax-ns#"
   xmlns:svg="http://www.w3.org/2000/svg"
   xmlns="http://www.w3.org/2000/svg"
   xmlns:sodipodi="http://sodipodi.sourceforge.net/DTD/sodipodi-0.dtd"
   xmlns:inkscape="http://www.inkscape.org/namespaces/inkscape"
   version="1.1"
   id="svg7884"
   width="512"
   height="512"
   viewBox="0 0 512 512"
   sodipodi:docname="power off.svg"
   inkscape:version="0.92.0 r15299">
  <metadata
     id="metadata7890">
    <rdf:RDF>
      <cc:Work
         rdf:about="">
        <dc:format>image/svg+xml</dc:format>
        <dc:type
           rdf:resource="http://purl.org/dc/dcmitype/StillImage" />
        <dc:title></dc:title>
      </cc:Work>
    </rdf:RDF>
  </metadata>
  <defs
     id="defs7888" />
  <sodipodi:namedview
     pagecolor="#ffffff"
     bordercolor="#666666"
     borderopacity="1"
     objecttolerance="10"
     gridtolerance="10"
     guidetolerance="10"
     inkscape:pageopacity="0"
     inkscape:pageshadow="2"
     inkscape:window-width="1920"
     inkscape:window-height="1017"
     id="namedview7886"
     showgrid="false"
     inkscape:zoom="0.99937758"
     inkscape:cx="-12.863257"
     inkscape:cy="479.45917"
     inkscape:window-x="-8"
     inkscape:window-y="-8"
     inkscape:window-maximized="1"
     inkscape:current-layer="layer7" />
  <g
     inkscape:groupmode="layer"
     id="layer8"
     inkscape:label="bg 1"
     style="display:none">
    <rect
       style="opacity:1;fill:#000000;fill-opacity:0.33333333;stroke:none;stroke-width:0;stroke-miterlimit:4;stroke-dasharray:none"
       id="rect7905"
       width="512"
       height="512"
       x="0"
       y="0" />
    <path
       style="opacity:1;fill:#000000;fill-opacity:0.33333333;stroke:none;stroke-width:0;stroke-miterlimit:4;stroke-dasharray:none"
       d="M 0.36922959,256.2946 V 0.51629717 H 256.14753 511.92583 V 256.2946 512.0729 H 256.14753 0.36922959 Z M 286.57206,508.24145 c 81.24579,-10.19632 151.49101,-57.50099 191.48396,-128.94951 15.51896,-27.72508 25.38443,-57.72653 30.09197,-91.51149 1.79506,-12.88277 1.81003,-49.61174 0.0257,-62.9717 -5.5664,-41.67678 -19.59795,-78.51147 -42.98974,-112.85377 C 453.81321,95.261222 435.37217,74.985913 419.23715,61.438009 360.2235,11.886708 282.10579,-8.1201559 206.26546,6.8934573 130.55763,21.880838 64.582147,71.869924 29.738487,140.6465 15.181435,169.38011 6.8125022,197.84524 3.1220215,231.17667 c -1.3086908,11.81975 -1.1252791,39.77574 0.3458309,52.71227 5.1969722,45.70072 22.1802196,88.32592 49.8294376,125.06383 34.594796,45.96658 84.09163,78.8988 140.16712,93.25875 12.90111,3.30375 25.74046,5.39089 44.99444,7.31424 6.27387,0.62672 40.07537,-0.27556 48.11321,-1.28431 z"
       id="path7907"
       inkscape:connector-curvature="0" />
    <path
       style="opacity:1;fill:#000000;fill-opacity:0.33333333;stroke:none;stroke-width:0;stroke-miterlimit:4;stroke-dasharray:none"
       d="M 0.36922959,256.2946 V 0.51629717 H 256.14753 511.92583 V 256.2946 512.0729 H 256.14753 0.36922959 Z M 278.47072,509.1951 c 57.92463,-4.59649 114.47199,-30.98696 156.74462,-73.15225 42.4194,-42.31168 68.43723,-97.24357 73.90903,-156.04542 0.97458,-10.47326 0.96984,-36.83943 -0.009,-47.75943 C 504.77308,183.77109 485.32567,135.60719 454.71181,97.499943 412.57959,45.05496 354.8371,12.730658 286.92583,3.5731861 273.54951,1.7694606 237.54626,1.7864216 224.66168,3.6025187 206.94283,6.1000112 191.02547,9.6815264 176.90225,14.348719 89.789274,43.136271 24.174184,117.0353 6.7912652,205.93629 c -3.982463,20.3674 -4.5653636,26.64533 -4.5771892,49.29699 -0.013549,25.95267 1.6183959,40.25137 7.1063533,62.26415 15.9349097,63.91661 55.9619647,118.82376 112.5757107,154.42583 22.29116,14.018 51.46727,26.04398 77.68576,32.02097 6.94141,1.58243 27.26423,4.81153 34.63167,5.50265 6.51929,0.61156 35.45166,0.44697 44.25715,-0.25178 z"
       id="path7909"
       inkscape:connector-curvature="0" />
    <path
       style="opacity:1;fill:#000000;fill-opacity:0.33333333;stroke:none;stroke-width:0;stroke-miterlimit:4;stroke-dasharray:none"
       d="M 0.36922959,256.2946 V 0.51629717 H 256.14753 511.92583 V 256.2946 512.0729 H 256.14753 0.36922959 Z M 291.87866,507.93787 c 28.96558,-4.35899 53.31213,-12.1157 79.22327,-25.2402 71.67368,-36.30412 122.59324,-105.53513 135.8162,-184.65779 3.82918,-22.91275 4.28088,-53.58188 1.12644,-76.48184 C 496.77005,139.7095 446.2071,68.072152 372.98577,30.207333 343.93239,15.183008 310.20504,5.3210858 278.78904,2.6640804 267.81193,1.7356923 245.05687,1.7323676 233.43189,2.6574533 189.99168,6.1143097 145.61189,22.589237 107.90982,49.254491 91.800873,60.647744 70.247826,81.078368 57.439479,97.096486 36.596722,123.16243 19.737324,155.78948 11.288844,186.4092 8.2804935,197.31233 4.34593,216.75531 3.0886012,226.93139 1.882605,236.69202 1.86254,273.49425 3.0575473,283.88894 6.6145694,314.82944 15.15427,343.117 29.437229,371.27101 c 24.962656,49.20542 65.522156,89.14439 114.917851,113.15966 25.31504,12.30771 47.56852,19.05629 78.18396,23.71004 11.09313,1.68622 12.87256,1.76115 35.73113,1.5046 19.55261,-0.21945 25.84496,-0.53913 33.60849,-1.70744 z"
       id="path7911"
       inkscape:connector-curvature="0" />
    <path
       style="opacity:1;fill:#000000;fill-opacity:0.33333333;stroke:none;stroke-width:0;stroke-miterlimit:4;stroke-dasharray:none"
       d="M 0.36922959,256.2946 V 0.51629717 H 256.14753 511.92583 V 256.2946 512.0729 H 256.14753 0.36922959 Z M 280.27827,509.22558 c 17.13762,-1.36118 37.82922,-5.64779 55.11454,-11.41791 80.61493,-26.91053 142.94344,-92.16169 165.81341,-173.58854 2.96172,-10.545 6.15912,-26.92359 7.59692,-38.9151 1.6403,-13.68031 1.6403,-45.0461 0,-58.72641 C 503.11871,179.16872 484.16008,133.98217 454.18071,96.388939 446.48678,86.740988 425.47453,65.649199 416.19237,58.256805 379.37967,28.938851 338.74529,11.237948 291.52489,3.9499154 279.52829,2.09835 248.61638,1.3717515 233.55394,2.5872817 190.0809,6.0955305 146.52707,22.093112 109.33149,48.214924 97.807425,56.308077 89.080086,63.821195 76.036185,76.877908 56.496302,96.436974 44.694721,112.07229 32.307595,134.81169 17.662064,161.6969 8.559952,189.61253 3.5400898,223.03988 c -1.4992727,9.98368 -2.1075939,37.81865 -1.1442721,52.35849 4.510939,68.08558 39.5246193,134.79319 93.5629713,178.25497 39.120181,31.46344 82.131011,49.19215 135.424591,55.82087 4.84702,0.60288 40.45369,0.42182 48.89489,-0.24863 z"
       id="path7913"
       inkscape:connector-curvature="0" />
    <path
       style="opacity:1;fill:#000000;fill-opacity:0.33333333;stroke:none;stroke-width:0;stroke-miterlimit:4;stroke-dasharray:none"
       d="M 0.36922959,256.2946 V 0.51629717 H 256.14753 511.92583 V 256.2946 512.0729 H 256.14753 0.36922959 Z M 280.91168,509.23263 c 31.95288,-2.61639 66.79763,-13.35516 96.93396,-29.87399 43.8194,-24.01903 80.48129,-61.4468 103.99602,-106.16848 14.43007,-27.44396 23.64812,-57.93473 27.31863,-90.36254 1.12359,-9.92668 1.12489,-43.53324 0.002,-53.77359 C 503.40712,176.56537 480.48509,124.96712 445.97194,86.810292 423.20198,61.636436 398.72348,42.896331 369.72055,28.434209 340.96594,14.095909 309.30936,5.0937752 278.78904,2.5761599 263.91271,1.349014 231.82308,2.1112219 219.72449,3.9790886 170.88789,11.518829 126.66377,31.644192 90.852385,62.625768 80.907569,71.229347 64.284397,88.355738 56.910631,97.595016 30.137331,131.14177 13.175804,169.09598 4.9739437,213.8119 0.66706485,237.29268 0.67051867,272.17225 4.9822881,298.08067 16.409559,366.7445 56.23645,428.26484 114.6381,467.46529 c 32.37403,21.73016 66.67819,34.67696 108.74611,41.04209 10.05007,1.52064 42.77521,1.9332 57.52747,0.72525 z"
       id="path7915"
       inkscape:connector-curvature="0" />
    <path
       style="opacity:1;fill:#000000;fill-opacity:0.33333333;stroke:none;stroke-width:0;stroke-miterlimit:4;stroke-dasharray:none"
       d="M 0.36922959,256.2946 V 0.51629717 H 256.14753 511.92583 V 256.2946 512.0729 H 256.14753 0.36922959 Z M 281.61923,509.21995 c 38.81278,-3.2717 79.89897,-18.01097 114.62264,-41.11975 14.55296,-9.68507 24.39681,-17.64378 37.06389,-29.96598 38.89225,-37.83337 64.57429,-86.35535 73.58832,-139.03302 3.05315,-17.8425 4.10033,-38.71821 2.96361,-59.08019 C 507.01572,189.11287 487.44033,138.24199 454.85954,97.096486 441.40265,80.102101 416.83565,57.477624 398.19423,44.911738 363.72665,21.677685 320.38487,6.1067367 280.55791,2.6497663 270.04726,1.7374448 242.18356,1.7411689 231.73715,2.6562916 182.1222,7.002646 132.07933,27.9595 93.057909,60.732122 82.653194,69.470646 64.683844,87.786531 56.687385,97.804033 34.116418,126.07964 17.268605,160.42428 8.855747,195.30988 c -5.8274042,24.16449 -7.4668145,40.27995 -6.8517215,67.35264 0.57749,25.41764 3.288225,43.54518 9.7056365,64.90468 23.616463,78.60424 81.717346,140.20733 158.470888,168.02322 15.03838,5.44998 37.46421,10.80146 55.54245,13.25411 8.62193,1.16972 43.67997,1.40518 55.89623,0.37542 z"
       id="path7917"
       inkscape:connector-curvature="0" />
    <path
       style="opacity:1;fill:#000000;fill-opacity:0.33333333;stroke:none;stroke-width:0;stroke-miterlimit:4;stroke-dasharray:none"
       d="M 0.36922959,256.2946 V 0.51629717 H 256.14753 511.92583 V 256.2946 512.0729 H 256.14753 0.36922959 Z M 281.61923,509.20629 c 46.41241,-3.98697 94.94428,-23.90091 133.72641,-54.87156 9.729,-7.76938 30.77861,-28.75189 38.26669,-38.1447 29.09999,-36.50211 47.16837,-77.20949 54.07365,-121.82592 2.81565,-18.19245 3.39656,-46.81751 1.33974,-66.01762 C 504.74815,188.41584 489.94489,148.07582 466.95798,113.70865 451.15551,90.082769 428.80612,67.046679 404.52806,49.360564 369.55694,23.884741 322.96968,6.3310977 280.55791,2.6497663 269.91313,1.7258022 242.14398,1.7475396 231.38338,2.6882595 183.20209,6.9003955 133.10709,27.606359 94.921666,59.092511 86.713135,65.860933 69.921343,82.351535 62.347569,91.082335 36.933112,120.37929 18.055221,157.16242 8.855747,195.30988 c -5.8274042,24.16449 -7.4668145,40.27995 -6.8517215,67.35264 0.4404691,19.3868 1.5325316,29.77836 4.7608737,45.30227 13.3049058,63.97841 51.7970698,121.36652 106.2032708,158.33884 35.36275,24.03114 73.10624,37.79498 118.41521,43.18222 5.00963,0.59565 42.47462,0.38716 50.23585,-0.27956 z"
       id="path7919"
       inkscape:connector-curvature="0" />
    <path
       style="opacity:1;fill:#000000;fill-opacity:0.33333333;stroke:none;stroke-width:0;stroke-miterlimit:4;stroke-dasharray:none"
       d="M 0.36922959,256.2946 V 0.51629717 H 256.14753 511.92583 V 256.2946 512.0729 H 256.14753 0.36922959 Z M 281.61923,509.20629 c 46.58327,-4.00165 94.61279,-23.7141 133.72641,-54.88449 10.00658,-7.97442 30.85467,-28.82252 38.8291,-38.82909 28.46967,-35.72468 46.66405,-76.909 53.5121,-121.1286 2.82383,-18.23416 3.4054,-46.842 1.34208,-66.01762 C 503.91493,180.81914 484.43276,134.00989 453.97265,96.064358 441.57179,80.616042 421.81211,61.951672 404.52806,49.360564 369.5828,23.90358 322.93832,6.3283754 280.55791,2.6497663 270.04726,1.7374448 242.18356,1.7411689 231.73715,2.6562916 182.15147,7.0000811 132.05631,27.978839 93.057909,60.732122 82.653194,69.470646 64.683844,87.786531 56.687385,97.804033 45.248856,112.13357 33.334276,131.26519 25.690326,147.57701 13.036458,174.57976 4.4452068,206.54796 2.3918487,234.27105 1.4043429,247.60371 2.0199935,277.19413 3.5315793,289.05069 10.899196,346.84066 40.484943,403.77817 83.506022,442.9608 c 40.340408,36.74115 87.109208,58.40735 142.216978,65.88373 8.67123,1.17641 43.76863,1.40356 55.89623,0.36176 z"
       id="path7921"
       inkscape:connector-curvature="0" />
    <path
       style="opacity:1;fill:#000000;fill-opacity:0.33333333;stroke:none;stroke-width:0;stroke-miterlimit:4;stroke-dasharray:none"
       d="M 0.36922959,256.2946 V 0.51629717 H 256.14753 511.92583 V 256.2946 512.0729 H 256.14753 0.36922959 Z M 281.61923,509.20629 c 46.36653,-3.98303 95.04562,-23.9526 133.72641,-54.85846 9.92589,-7.93076 30.75206,-28.76697 38.8364,-38.85512 30.00843,-37.44642 48.86941,-82.16353 54.61313,-129.48113 1.65484,-13.6328 1.67409,-46.41033 0.0351,-59.76263 C 499.3401,148.93573 456.26608,81.314915 389.87395,39.502448 380.19027,33.403857 356.55149,21.879567 344.82109,17.538443 327.92918,11.287175 310.18807,6.6981109 292.25472,3.9411747 280.18341,2.0854236 247.68262,1.3508842 233.00022,2.6019837 184.55434,6.7301005 135.84765,26.268161 97.657093,56.893131 88.440399,64.283989 71.257439,80.878542 62.981397,90.381396 33.101198,124.69095 13.641238,166.02321 5.0206181,213.488 1.9007639,230.66579 0.91775879,255.94097 2.5302394,277.52101 7.8217539,348.33804 45.110204,415.64973 103.31734,459.45805 c 27.06166,20.36736 58.73635,35.43585 91.21758,43.39464 9.82087,2.40638 25.92276,5.42342 33.6645,6.30779 7.64232,0.87301 43.4331,0.9037 53.41981,0.0458 z"
       id="path7923"
       inkscape:connector-curvature="0" />
    <path
       style="opacity:1;fill:#000000;fill-opacity:0.33333333;stroke:none;stroke-width:0;stroke-miterlimit:4;stroke-dasharray:none"
       d="M 0.36922959,256.2946 V 0.51629717 H 256.14753 511.92583 V 256.2946 512.0729 H 256.14753 0.36922959 Z M 291.08556,508.22394 c 45.23469,-6.44536 87.97803,-24.99194 124.26008,-53.91717 9.96731,-7.94627 30.79967,-28.76831 38.83329,-38.81406 30.66495,-38.34542 49.45367,-83.67119 54.99314,-132.66509 1.27619,-11.28725 1.07131,-45.03666 -0.34345,-56.57867 -5.7787,-47.1438 -24.9782,-92.77942 -54.6338,-129.860011 C 445.75502,85.836035 425.85705,66.087035 414.6381,57.12837 375.89732,26.19272 326.73089,6.4492555 278.82927,2.5924472 265.49192,1.5185881 233.05277,2.1182413 222.23145,3.6386847 176.18804,10.107988 133.31722,28.492204 97.304614,57.210826 87.908855,64.70357 70.823649,81.316182 62.105702,91.436108 31.268148,127.2328 11.206583,171.78028 3.835622,220.82709 1.9733997,233.21843 1.2967878,259.97959 2.4379879,276.10592 7.918876,353.5565 51.03563,426.07069 117.21177,469.13365 c 31.35038,20.4007 65.76268,33.31045 103.91218,38.9826 11.35932,1.68893 11.47156,1.69332 37.5,1.46708 17.7374,-0.15419 26.61131,-0.52579 32.46161,-1.35939 z"
       id="path7925"
       inkscape:connector-curvature="0" />
    <path
       style="opacity:1;fill:#000000;fill-opacity:0.33333333;stroke:none;stroke-width:0;stroke-miterlimit:4;stroke-dasharray:none"
       d="M 0.36922959,256.2946 V 0.51629717 H 256.14753 511.92583 V 256.2946 512.0729 H 256.14753 0.36922959 Z M 280.91168,509.21757 c 47.24799,-3.996 95.4389,-23.77372 135.10959,-55.44949 9.44074,-7.53812 30.39577,-28.56523 38.14416,-38.27537 30.1306,-37.7591 48.86795,-82.27983 54.65393,-129.86001 1.43924,-11.83541 1.6355,-44.68033 0.33807,-56.57867 C 503.94939,181.29261 484.36947,134.04506 454.17951,96.388939 446.38958,86.672512 426.9753,67.155185 417.03347,59.045742 377.39849,26.715898 327.36384,6.3539106 278.27008,2.5749013 264.60956,1.5233787 233.0353,2.1474763 221.91705,3.6887764 176.29272,10.013584 132.77402,28.789283 96.600173,57.755456 87.629968,64.938343 69.363461,82.85966 61.140736,92.544807 30.209861,128.97676 10.353923,174.02088 3.4270822,223.47089 1.6780476,235.95708 1.6849076,274.95207 3.4384578,288.13422 14.121895,368.44601 61.206999,438.127 131.75497,478.02913 c 15.10424,8.54301 35.44137,17.07619 52.42049,21.99493 14.44544,4.18475 35.76302,8.44871 47.20792,9.44255 6.71929,0.58349 41.76841,0.40726 49.5283,-0.24904 z"
       id="path7927"
       inkscape:connector-curvature="0" />
    <path
       style="opacity:1;fill:#000000;fill-opacity:0.33333333;stroke:none;stroke-width:0;stroke-miterlimit:4;stroke-dasharray:none"
       d="M 0.36922959,256.2946 V 0.51629717 H 256.14753 511.92583 V 256.2946 512.0729 H 256.14753 0.36922959 Z M 280.27827,509.23049 c 47.13007,-3.71795 96.52806,-23.95195 136.1287,-55.75991 9.1997,-7.38937 30.20713,-28.51604 37.76351,-37.97787 24.55326,-30.74468 41.76734,-66.52466 50.25815,-104.46306 6.34594,-28.35476 7.60875,-64.43756 3.24792,-92.80456 -6.77067,-44.04292 -25.57029,-86.83871 -53.521,-121.836151 C 446.43169,86.717781 427.02617,67.196687 417.03347,59.045742 377.80213,27.045144 328.54928,6.8568381 279.49659,2.6705919 261.48149,1.1331506 232.62552,1.9668732 216.87866,4.4797839 172.95988,11.488419 132.31676,29.488146 96.595645,57.74985 87.508758,64.939182 64.331127,88.219825 56.718699,97.804033 38.936717,120.19192 24.347168,146.87181 15.125547,173.86535 10.080194,188.63412 4.9501321,210.91749 3.0716119,226.22384 c -1.2126509,9.88079 -1.2189421,48.76802 -0.0095,58.72642 8.7890721,72.36821 46.4812831,136.02166 105.5809681,178.30189 34.19396,24.46253 75.41433,40.38392 118.14124,45.6321 9.11886,1.12008 41.06355,1.32685 53.49395,0.34624 z"
       id="path7929"
       inkscape:connector-curvature="0" />
    <path
       style="opacity:1;fill:#000000;fill-opacity:0.33333333;stroke:none;stroke-width:0;stroke-miterlimit:4;stroke-dasharray:none"
       d="M 0.36922959,256.2946 V 0.51629717 H 256.14753 511.92583 V 256.2946 512.0729 H 256.14753 0.36922959 Z M 280.27827,509.22558 c 44.38784,-3.52556 91.84332,-22.09561 129.6176,-50.72136 16.80548,-12.73537 35.5644,-31.49487 48.42135,-48.42282 27.65635,-36.41345 45.09175,-79.51343 50.47666,-124.77737 1.42753,-11.99938 1.65034,-44.37938 0.38219,-55.54245 -5.65881,-49.81242 -24.8063,-95.88553 -55.86841,-134.431762 -7.23536,-8.97866 -26.97772,-28.71864 -36.19315,-36.1888 C 401.14266,46.194004 389.32103,38.547637 370.77017,29.164977 340.70149,13.956826 309.95567,5.1382891 278.10542,2.58682 264.80357,1.5212312 233.84726,2.1257394 222.53904,3.6719085 176.85925,9.9176887 133.00555,28.712096 96.949418,57.495922 86.918359,65.503775 64.6703,87.805946 56.739095,97.804033 30.035155,131.46707 11.754962,172.85999 4.6731478,215.70005 0.78039516,239.2485 0.92970056,273.37089 5.0349809,298.39366 18.768532,382.10328 76.06177,455.09545 154.96829,489.41022 c 21.74484,9.45638 51.43355,17.37235 73.99536,19.72958 8.5008,0.88815 40.53822,0.9417 51.31462,0.0858 z"
       id="path7931"
       inkscape:connector-curvature="0" />
    <path
       style="opacity:1;fill:#000000;fill-opacity:0.33333333;stroke:none;stroke-width:0;stroke-miterlimit:4;stroke-dasharray:none"
       d="M 0.36922959,256.2946 V 0.51629717 H 256.14753 511.92583 V 256.2946 512.0729 H 256.14753 0.36922959 Z M 280.20414,509.21106 c 31.09903,-2.65405 61.67348,-11.63163 91.62735,-26.90456 76.50201,-39.00694 128.52837,-114.98678 137.31773,-200.5402 1.12249,-10.92607 1.12398,-40.70312 0.003,-51.65095 C 503.80762,177.94202 481.57765,127.25737 446.75089,87.840382 410.31072,46.597325 361.8526,18.345671 308.07326,6.9896745 291.90755,3.5761373 283.03089,2.6128706 263.57678,2.1610566 236.54485,1.5332508 219.1217,3.2182676 196.65022,8.6336193 150.01292,19.87263 108.05676,43.806986 74.294246,78.432927 54.336277,98.901283 41.509085,116.73911 29.073422,141.31818 9.3568411,180.28798 0.76663237,219.15792 2.0219277,263.72384 c 0.7288908,25.87733 3.6383163,43.89207 10.8557093,67.21699 23.962098,77.43985 83.561852,138.99589 160.133103,165.38927 17.86322,6.15728 41.39105,11.4451 57.31132,12.88057 9.09504,0.82007 40.27456,0.82031 49.88208,3.9e-4 z"
       id="path7933"
       inkscape:connector-curvature="0" />
    <path
       style="opacity:1;fill:#000000;fill-opacity:0.33333333;stroke:none;stroke-width:0;stroke-miterlimit:4;stroke-dasharray:none"
       d="M 0.36922959,256.2946 V 0.51629717 H 256.14753 511.92583 V 256.2946 512.0729 H 256.14753 0.36922959 Z M 280.20414,509.21106 c 45.12905,-3.8514 91.36881,-21.86734 128.77358,-50.17278 C 477.04883,407.52658 514.5601,326.81797 509.84801,242.00745 506.01697,173.05451 475.32266,110.15563 423.21375,64.476212 385.75307,31.637647 338.93831,10.419573 289.04847,3.6678526 277.76908,2.1413821 248.09422,1.5352881 234.91294,2.5621615 185.44687,6.4157619 136.8367,25.794354 96.949418,57.561739 86.938829,65.534462 65.387395,87.085896 57.414672,97.096486 37.019245,122.70508 20.803689,153.70206 12.077971,183.76022 4.2204182,210.82774 1.2005788,234.6987 2.0067843,263.37007 c 0.6619599,23.54151 3.3366677,41.42304 9.3081117,62.22858 22.934697,79.90843 83.423091,143.76481 161.761794,170.76867 17.56271,6.05399 42.25522,11.5617 57.59914,12.84761 9.70563,0.81339 39.97968,0.81102 49.52831,-0.004 z"
       id="path7935"
       inkscape:connector-curvature="0" />
    <path
       style="opacity:1;fill:#000000;fill-opacity:0.33333333;stroke:none;stroke-width:0;stroke-miterlimit:4;stroke-dasharray:none"
       d="M 0.36922959,256.2946 V 0.51629717 H 256.14753 511.92583 V 256.2946 512.0729 H 256.14753 0.36922959 Z M 289.75602,508.24225 c 84.12197,-11.67865 156.17816,-63.45396 194.09931,-139.46828 15.75305,-31.57757 23.95919,-63.0419 25.99778,-99.6818 2.47662,-44.51289 -6.74271,-87.86918 -27.32535,-128.50462 C 442.91537,62.382495 363.79101,9.2494309 277.02017,2.5864559 263.46055,1.5452375 234.60504,2.1315565 223.24659,3.6790884 176.76368,10.01215 133.45105,28.490783 96.949418,57.561739 86.938829,65.534462 65.387395,87.085896 57.414672,97.096486 28.003574,134.02521 10.048963,176.49593 3.4239712,224.80875 1.707587,237.3255 1.7077979,273.56121 3.4243337,287.0729 8.531689,327.27538 22.82474,365.05586 45.717473,398.86535 c 34.695768,51.24099 87.882027,88.54469 147.665887,103.56973 11.7888,2.96279 27.8393,5.89672 37.06483,6.77522 10.47702,0.99768 49.76811,0.35636 59.30783,-0.96805 z"
       id="path7937"
       inkscape:connector-curvature="0" />
    <path
       style="opacity:1;fill:#000000;fill-opacity:0.33333333;stroke:none;stroke-width:0;stroke-miterlimit:4;stroke-dasharray:none"
       d="M 0.36922959,256.2946 V 0.51629717 H 256.14753 511.92583 V 256.2946 512.0729 H 256.14753 0.36922959 Z M 289.75602,508.24225 c 27.31867,-3.79265 52.76754,-11.595 77.47642,-23.75344 25.48834,-12.54199 44.76226,-25.94349 64.47966,-44.83385 37.43839,-35.86804 62.83944,-81.69214 73.40091,-132.41696 6.42676,-30.86661 6.81082,-65.64475 1.07043,-96.93397 C 485.45427,97.315097 390.49616,11.324773 276.81026,2.5927076 262.85099,1.5205143 235.37027,2.0827259 223.24659,3.6885346 177.41905,9.7584941 133.38978,28.539582 96.949418,57.561739 86.938829,65.534462 65.387395,87.085896 57.414672,97.096486 38.897451,120.3468 24.712937,146.29956 15.069835,174.5729 -1.5738483,223.37179 -2.6356452,278.81294 12.123414,328.41874 c 12.736577,42.80814 38.310007,83.9158 70.784235,113.78113 42.395181,38.98924 94.026131,61.96464 151.305921,67.33003 7.60812,0.71265 47.85498,-0.2204 55.54245,-1.28765 z"
       id="path7939"
       inkscape:connector-curvature="0" />
    <path
       style="opacity:1;fill:#000000;fill-opacity:0.33333333;stroke:none;stroke-width:0;stroke-miterlimit:4;stroke-dasharray:none"
       d="M 0.36922959,256.2946 V 0.51629717 H 256.14753 511.92583 V 256.2946 512.0729 H 256.14753 0.36922959 Z M 279.49659,509.20953 c 98.29647,-8.40649 184.74199,-76.4601 217.0914,-170.90365 C 518.85568,273.29576 513.84864,202.24571 482.68184,140.9769 442.49667,61.979458 364.33126,9.4643285 276.6664,2.566221 263.52122,1.5318626 234.6205,2.1453976 223.24659,3.7002731 174.31425,10.389589 128.60986,30.644727 91.668725,62.012558 82.163982,70.083323 65.672054,86.896033 58.279856,96.050873 25.839381,136.22665 6.1980874,185.74478 2.4372308,236.83705 1.416857,250.69911 1.9367788,274.20244 3.5485076,287.0729 15.998056,386.48875 85.297984,469.29217 180.79376,498.85542 c 15.792,4.88884 36.27883,9.11411 50.23291,10.36021 9.14046,0.81623 38.89818,0.81249 48.46992,-0.006 z"
       id="path7941"
       inkscape:connector-curvature="0" />
    <path
       style="opacity:1;fill:#000000;fill-opacity:0.33333333;stroke:none;stroke-width:0;stroke-miterlimit:4;stroke-dasharray:none"
       d="M 0.36922959,256.2946 V 0.51629717 H 256.14753 511.92583 V 256.2946 512.0729 H 256.14753 0.36922959 Z M 279.49659,509.21106 c 18.43063,-1.5729 38.301,-5.74117 56.73189,-11.9008 88.96887,-29.73354 154.49827,-105.99714 170.33775,-198.24035 3.23544,-18.84197 4.36926,-38.62566 3.2625,-56.92625 C 507.65636,206.22272 499.7321,175.87501 484.33301,144.50215 470.80265,116.93644 456.85917,97.46013 435.19523,75.866257 395.17217,35.972643 345.12478,11.37204 288.34093,3.6805894 276.72521,2.1072247 249.20714,1.5386041 235.52855,2.589299 185.06417,6.4656225 136.58097,25.835061 96.11234,58.287224 86.876267,65.693713 70.100444,82.117684 61.865491,91.815792 27.194758,132.64667 6.4028473,183.61628 2.4098791,237.56618 c -0.8772164,11.85227 -0.4701296,35.51907 0.8028715,46.67653 4.7112608,41.29274 19.0689414,80.01115 42.5047224,114.62264 32.093672,47.39804 80.183667,82.9966 135.076287,99.99007 15.74018,4.8728 35.15221,8.8719 50.01037,10.30273 9.01072,0.86772 38.76602,0.90005 48.69246,0.0529 z"
       id="path7943"
       inkscape:connector-curvature="0" />
    <path
       style="opacity:1;fill:#000000;fill-opacity:0.33333333;stroke:none;stroke-width:0;stroke-miterlimit:4;stroke-dasharray:none"
       d="M 0.36922959,256.2946 V 0.51629717 H 256.14753 511.92583 V 256.2946 512.0729 H 256.14753 0.36922959 Z M 278.78904,509.24124 c 20.01529,-1.82033 38.0842,-5.5481 56.60377,-11.67785 C 452.73118,458.72585 525.23402,341.67753 507.63133,219.50215 500.99354,173.43106 481.26059,129.18813 451.25836,93.109238 442.65966,82.768953 426.12298,66.520307 415.62809,58.099574 378.78597,28.538747 335.62196,10.08487 288.34093,3.6805894 276.72521,2.1072247 249.20714,1.5386041 235.52855,2.589299 163.43982,8.1266554 96.231689,45.294458 52.173483,103.98931 18.013437,149.49771 0.37134806,205.43212 2.0153052,263.0163 c 1.0777964,37.75281 8.7490008,69.51872 24.8946218,103.08685 34.576305,71.88711 101.257163,123.72189 179.001753,139.14813 9.74293,1.93321 22.42308,3.81905 28.30189,4.20915 8.56026,0.56805 37.48322,0.42582 44.57547,-0.21919 z"
       id="path7945"
       inkscape:connector-curvature="0" />
    <path
       style="opacity:1;fill:#000000;fill-opacity:0.33333333;stroke:none;stroke-width:0;stroke-miterlimit:4;stroke-dasharray:none"
       d="M 0.36922959,256.2946 V 0.51629717 H 256.14753 511.92583 V 256.2946 512.0729 H 256.14753 0.36922959 Z M 289.04847,508.23282 C 331.89766,502.26157 371.29913,486.54228 405.05703,461.951 488.07069,401.47886 526.6627,298.4469 503.68763,198.6295 485.86108,121.18029 431.60056,55.555785 358.8737,23.486621 332.84496,12.009156 304.61244,4.82983 276.69348,2.5887846 263.41525,1.5229455 236.01802,2.0921299 223.95414,3.6844576 157.83726,12.411309 98.851843,45.620846 57.202438,97.567783 19.671404,144.37811 0.26513157,202.55234 2.0106614,263.0163 c 1.0881711,37.6935 8.8102466,69.6378 24.9401516,103.17119 28.613763,59.4868 78.945867,105.23029 141.422587,128.52953 18.55682,6.92034 47.02476,13.31327 65.84017,14.78546 8.95838,0.70094 47.01775,-0.1803 54.8349,-1.26966 z"
       id="path7947"
       inkscape:connector-curvature="0" />
    <path
       style="opacity:1;fill:#000000;fill-opacity:0.33333333;stroke:none;stroke-width:0;stroke-miterlimit:4;stroke-dasharray:none"
       d="M 0.36922959,256.2946 V 0.51629717 H 256.14753 511.92583 V 256.2946 512.0729 H 256.14753 0.36922959 Z M 289.04847,508.23035 c 35.73167,-4.99028 67.64937,-16.17162 97.64151,-34.20555 C 481.39132,417.08194 528.46503,306.27733 503.68763,198.6295 480.70479,98.778304 399.32279,22.296 297.89281,5.224789 270.65643,0.6407596 237.32771,0.88680333 209.80319,5.8750961 141.41031,18.269997 79.356661,60.232893 41.246818,119.85895 19.037739,154.60692 5.6422988,195.21466 2.4253766,237.5446 c -0.8959118,11.78887 -0.5084163,35.47457 0.7581884,46.34434 5.8802448,50.46315 25.658416,96.71862 57.744047,135.04674 8.934955,10.67331 25.735004,27.18436 36.021806,35.40216 25.370922,20.268 55.862322,36.26128 86.326682,45.27987 14.84604,4.39498 34.33197,8.29108 48.03951,9.60522 10.27548,0.9851 48.24648,0.33228 57.73286,-0.99258 z"
       id="path7949"
       inkscape:connector-curvature="0" />
    <path
       style="opacity:1;fill:#000000;fill-opacity:0.33333333;stroke:none;stroke-width:0;stroke-miterlimit:4;stroke-dasharray:none"
       d="M 0.36922959,256.2946 V 0.51629717 H 256.14753 511.92583 V 256.2946 512.0729 H 256.14753 0.36922959 Z M 289.04847,508.23035 C 324.6407,503.25954 356.80991,491.99 386.68998,474.02449 481.38925,417.08619 528.46496,306.277 503.68763,198.6295 478.96846,91.234599 386.52864,11.408581 276.6664,2.5862508 263.55375,1.5332577 235.38486,2.1229262 223.95414,3.689694 193.21631,7.9028144 168.52447,15.528737 141.52489,29.147457 115.4886,42.280284 94.472911,57.717365 73.942708,78.789955 33.922373,119.86758 9.9485275,170.5865 3.083021,228.70026 c -1.2093808,10.23693 -1.2107323,44.22695 -0.00217,54.48113 6.0665736,51.47239 25.763496,97.56021 58.210086,136.20283 26.863708,31.99362 62.444223,57.63424 101.460363,73.11605 21.47761,8.52243 48.72823,14.97565 71.81604,17.00678 8.13112,0.71532 46.68709,-0.18818 54.48113,-1.2767 z"
       id="path7951"
       inkscape:connector-curvature="0" />
    <path
       style="opacity:1;fill:#000000;fill-opacity:0.33333333;stroke:none;stroke-width:0;stroke-miterlimit:4;stroke-dasharray:none"
       d="M 0.36922959,256.2946 V 0.51629717 H 256.14753 511.92583 V 256.2946 512.0729 H 256.14753 0.36922959 Z M 279.14281,509.21815 c 64.14801,-5.73363 124.76834,-36.53863 167.49436,-85.11443 35.56457,-40.43384 56.99046,-89.70273 62.51463,-143.75252 1.11622,-10.92132 1.11665,-37.89304 7.1e-4,-48.82075 -1.93288,-18.92871 -6.1121,-38.43849 -12.02196,-56.12187 C 464.92029,79.029262 377.7604,10.704461 276.6664,2.5862508 263.5994,1.5369238 235.4356,2.120543 223.95414,3.6785713 167.77427,11.302143 118.6912,35.084874 78.638678,74.089776 35.996816,115.61629 10.208296,168.38766 3.083021,228.70026 c -1.2093808,10.23693 -1.2107323,44.22695 -0.00217,54.48113 5.2880018,44.86652 20.586327,84.80807 46.341541,120.99057 15.738962,22.11105 40.054559,45.94862 62.385518,61.15904 27.80425,18.93849 57.85181,32.00679 89.50472,38.92745 9.07153,1.98341 26.37073,4.69187 33.25471,5.20654 7.72922,0.57786 37.17285,0.41481 44.57547,-0.24684 z"
       id="path7953"
       inkscape:connector-curvature="0" />
    <path
       style="opacity:1;fill:#000000;fill-opacity:0.33333333;stroke:none;stroke-width:0;stroke-miterlimit:4;stroke-dasharray:none"
       d="M 0.36922959,256.2946 V 0.51629717 H 256.14753 511.92583 V 256.2946 512.0729 H 256.14753 0.36922959 Z M 279.14281,509.21815 C 350.6483,502.8269 416.94348,465.56362 460.13112,407.48798 517.28229,330.63521 526.24448,227.71405 483.25051,141.98653 443.51357,62.753329 364.95076,9.7990366 276.39939,2.5610826 263.7938,1.5307361 235.30935,2.1376747 223.95414,3.6785713 193.67966,7.7867993 168.36851,15.607407 141.52489,29.147457 115.57894,42.234721 94.40534,57.787612 73.941944,78.789955 16.968229,137.26419 -8.1415603,217.87694 5.3714703,298.92939 c 6.1587177,36.94057 21.4685507,73.51747 44.0509247,105.24257 15.738962,22.11105 40.054561,45.94862 62.385515,61.15904 27.75277,18.90343 57.91041,32.01961 89.50472,38.92745 9.07153,1.98341 26.37073,4.69187 33.25471,5.20654 7.72922,0.57786 37.17285,0.41481 44.57547,-0.24684 z"
       id="path7955"
       inkscape:connector-curvature="0" />
    <path
       style="opacity:1;fill:#000000;fill-opacity:0.33333333;stroke:none;stroke-width:0;stroke-miterlimit:4;stroke-dasharray:none"
       d="M 0.36922959,256.2946 V 0.51629717 H 256.14753 511.92583 V 256.2946 512.0729 H 256.14753 0.36922959 Z M 279.14281,509.21815 C 350.6361,502.82799 416.95084,465.55371 460.13112,407.48798 517.28229,330.63521 526.24448,227.71405 483.25051,141.98653 443.51357,62.753329 364.95076,9.7990366 276.39939,2.5610826 263.7938,1.5307361 235.30935,2.1376747 223.95414,3.6785713 186.94371,8.7008632 152.05445,21.134614 121.80291,40.082978 77.479885,67.845167 42.345,108.7725 22.100981,156.22208 12.583115,178.53084 6.3242034,202.46573 3.0556123,229.05403 c -1.405883,11.43614 -1.1747318,44.66971 0.3961598,56.95755 5.6116054,43.89515 20.6838089,82.63592 45.9706229,118.16038 15.738962,22.11105 40.054561,45.94862 62.385515,61.15904 27.75277,18.90343 57.91041,32.01961 89.50472,38.92745 9.07153,1.98341 26.37073,4.69187 33.25471,5.20654 7.72922,0.57786 37.17285,0.41481 44.57547,-0.24684 z"
       id="path7957"
       inkscape:connector-curvature="0" />
    <path
       style="opacity:1;fill:#000000;fill-opacity:0.33333333;stroke:none;stroke-width:0;stroke-miterlimit:4;stroke-dasharray:none"
       d="M 0.36922959,256.2946 V 0.51629717 H 256.14753 511.92583 V 256.2946 512.0729 H 256.14753 0.36922959 Z M 279.14281,509.21815 c 64.11413,-5.7306 124.79091,-36.56429 167.49436,-85.11443 30.9253,-35.1594 51.30277,-77.26393 59.6106,-123.16921 5.12348,-28.30996 5.12348,-61.67741 0,-89.98737 C 487.1034,105.1641 403.39519,22.646799 297.52979,5.1985712 280.85225,2.4498582 268.51667,1.6729216 249.15882,2.1520044 217.44321,2.9369267 191.50548,8.1554837 162.04376,19.679174 151.75691,23.702786 130.72684,34.379199 121.00602,40.512958 60.085259,78.953483 17.661185,141.92871 5.6707672,211.71913 c -3.0601966,17.81192 -3.5343028,23.90809 -3.494202,44.92924 0.03183,16.68568 0.3091679,22.1795 1.6073206,31.83963 6.5636272,48.84285 26.2663832,93.6898 57.5070552,130.89622 8.606586,10.2501 25.507461,26.79501 35.658477,34.90744 30.550362,24.41504 66.735922,41.73989 104.363212,49.96679 9.07153,1.98341 26.37073,4.69187 33.25471,5.20654 7.72922,0.57786 37.17285,0.41481 44.57547,-0.24684 z"
       id="path7959"
       inkscape:connector-curvature="0" />
    <path
       style="opacity:1;fill:#000000;fill-opacity:0.33333333;stroke:none;stroke-width:0;stroke-miterlimit:4;stroke-dasharray:none"
       d="M 0.36922959,256.2946 V 0.51629717 H 256.14753 511.92583 V 256.2946 512.0729 H 256.14753 0.36922959 Z M 279.14281,509.21815 c 64.11413,-5.7306 124.79091,-36.56429 167.49436,-85.11443 30.9253,-35.1594 51.30277,-77.26393 59.6106,-123.16921 5.12348,-28.30996 5.12348,-61.67741 0,-89.98737 C 487.1034,105.1641 403.39519,22.646799 297.52979,5.1985712 280.85225,2.4498582 268.51667,1.6729216 249.15882,2.1520044 217.53329,2.9346974 191.4218,8.1882134 162.04376,19.679174 151.75691,23.702786 130.72684,34.379199 121.00602,40.512958 60.085259,78.953483 17.661185,141.92871 5.6707672,211.71913 c -3.0601966,17.81192 -3.5343028,23.90809 -3.494202,44.92924 0.03183,16.68568 0.3091679,22.1795 1.6073206,31.83963 6.5636272,48.84285 26.2663832,93.6898 57.5070552,130.89622 8.606586,10.2501 25.507461,26.79501 35.658477,34.90744 30.550362,24.41504 66.735922,41.73989 104.363212,49.96679 9.07153,1.98341 26.37073,4.69187 33.25471,5.20654 7.72922,0.57786 37.17285,0.41481 44.57547,-0.24684 z"
       id="path7961"
       inkscape:connector-curvature="0" />
    <path
       style="opacity:1;fill:#000000;fill-opacity:0.33333333;stroke:none;stroke-width:0;stroke-miterlimit:4;stroke-dasharray:none"
       d="M 0.36922959,256.2946 V 0.51629717 H 256.14753 511.92583 V 256.2946 512.0729 H 256.14753 0.36922959 Z M 279.14281,509.21815 c 64.09918,-5.72926 124.80087,-36.57561 167.49436,-85.11443 30.9253,-35.1594 51.30277,-77.26393 59.6106,-123.16921 5.12348,-28.30996 5.12348,-61.67741 0,-89.98737 C 485.99272,99.026979 393.55473,13.794855 280.7023,2.9837305 268.04901,1.7715599 246.53716,1.6227195 234.21357,2.6620753 210.63998,4.6502419 185.02632,10.689751 162.04376,19.679174 151.75691,23.702786 130.72684,34.379199 121.00602,40.512958 87.439652,61.693074 57.787138,91.987656 37.856374,125.46306 18.754969,157.54547 7.833623,190.05839 3.0593442,229.05403 c -1.1961694,9.77015 -1.1991692,43.96661 -0.00472,53.77359 5.601407,45.99002 20.5198968,85.03167 46.3677678,121.34434 15.738962,22.11105 40.054563,45.94862 62.385518,61.15904 27.75277,18.90343 57.91041,32.01961 89.50472,38.92745 9.07153,1.98341 26.37073,4.69187 33.25471,5.20654 7.72922,0.57786 37.17285,0.41481 44.57547,-0.24684 z"
       id="path7963"
       inkscape:connector-curvature="0" />
  </g>
  <g
     inkscape:groupmode="layer"
     id="layer6"
     inkscape:label="bg"
     style="display:inline">
    <circle
       style="opacity:1;fill:#c8ffff;fill-opacity:0.33333333;stroke:none;stroke-width:0;stroke-miterlimit:4;stroke-dasharray:none"
       id="path7896"
       cx="256"
       cy="256"
       r="254"
       inkscape:export-xdpi="96.760002"
       inkscape:export-ydpi="96.760002" />
  </g>
  <g
     inkscape:groupmode="layer"
     id="layer7"
     inkscape:label="fg">
    <path
       style="fill:#eaeaea;stroke-width:1.99683654;fill-opacity:1"
       d="m 235.09285,388.68665 c -54.7324,-9.78819 -97.8997,-48.90864 -111.31588,-100.88024 -4.18287,-16.20364 -4.19816,-52.90169 -0.0288,-69.20143 4.35012,-17.00643 15.07744,-38.0132 26.76331,-52.4092 9.86066,-12.14745 32.22051,-30.61408 37.06833,-30.61408 2.60605,0 19.03723,23.50366 19.03723,27.23145 0,1.11822 -5.24415,6.09252 -11.65368,11.05396 -21.59239,16.71417 -35.72603,43.79016 -37.72712,72.27433 -3.40557,48.47636 29.55269,92.39082 77.86099,103.74406 67.56212,15.87823 131.97099,-42.48558 122.0164,-110.56462 -4.01905,-27.48604 -17.43229,-50.70272 -38.73145,-67.03942 l -11.84953,-9.08871 4.44058,-7.87556 c 2.44232,-4.33155 6.85173,-10.75446 9.79871,-14.27311 5.16727,-6.1697 5.56032,-6.29215 11.0349,-3.43793 3.12222,1.62777 11.75344,8.64785 19.18049,15.60013 77.6288,72.66653 47.1319,200.18747 -55.35594,231.46746 -16.07793,4.90709 -44.86752,6.81547 -60.53852,4.01291 z m 4.92812,-124.93636 c -1.6458,-6.40738 -1.33845,-162.98623 0.32513,-165.638811 1.15803,-1.84652 6.12634,-2.41427 17.44589,-1.99363 l 15.82674,0.58812 v 84.729151 84.72915 l -16.3408,0.57646 c -14.30738,0.50473 -16.45478,0.13258 -17.25696,-2.99044 z"
       id="path7894"
       inkscape:connector-curvature="0"
       sodipodi:nodetypes="sssssscssssccscsssscscccss"
       inkscape:export-xdpi="96.760002"
       inkscape:export-ydpi="96.760002" />
  </g>
</svg>
